<svg xmlns="http://www.w3.org/2000/svg" viewBox="0 0 720 440" role="img"><rect width="720" height="440" fill="white"/><text x="360.0" y="28" text-anchor="middle" font-family="sans-serif" font-size="18" font-weight="600">Euler follows the tangent one step at a time</text><line x1="76.0" y1="54" x2="76.0" y2="378" stroke="#e5e7eb"/><text x="76.0" y="400" text-anchor="middle" font-family="sans-serif" font-size="11" fill="#374151">-0.03</text><line x1="200.4" y1="54" x2="200.4" y2="378" stroke="#e5e7eb"/><text x="200.4" y="400" text-anchor="middle" font-family="sans-serif" font-size="11" fill="#374151">0.18</text><line x1="324.8" y1="54" x2="324.8" y2="378" stroke="#e5e7eb"/><text x="324.8" y="400" text-anchor="middle" font-family="sans-serif" font-size="11" fill="#374151">0.39</text><line x1="449.2" y1="54" x2="449.2" y2="378" stroke="#e5e7eb"/><text x="449.2" y="400" text-anchor="middle" font-family="sans-serif" font-size="11" fill="#374151">0.61</text><line x1="573.6" y1="54" x2="573.6" y2="378" stroke="#e5e7eb"/><text x="573.6" y="400" text-anchor="middle" font-family="sans-serif" font-size="11" fill="#374151">0.82</text><line x1="698.0" y1="54" x2="698.0" y2="378" stroke="#e5e7eb"/><text x="698.0" y="400" text-anchor="middle" font-family="sans-serif" font-size="11" fill="#374151">1</text><line x1="76" y1="378.0" x2="698" y2="378.0" stroke="#e5e7eb"/><text x="66" y="382.0" text-anchor="end" font-family="sans-serif" font-size="11" fill="#374151">0.86</text><line x1="76" y1="313.2" x2="698" y2="313.2" stroke="#e5e7eb"/><text x="66" y="317.2" text-anchor="end" font-family="sans-serif" font-size="11" fill="#374151">1.3</text><line x1="76" y1="248.4" x2="698" y2="248.4" stroke="#e5e7eb"/><text x="66" y="252.4" text-anchor="end" font-family="sans-serif" font-size="11" fill="#374151">1.7</text><line x1="76" y1="183.6" x2="698" y2="183.6" stroke="#e5e7eb"/><text x="66" y="187.6" text-anchor="end" font-family="sans-serif" font-size="11" fill="#374151">2.1</text><line x1="76" y1="118.8" x2="698" y2="118.8" stroke="#e5e7eb"/><text x="66" y="122.8" text-anchor="end" font-family="sans-serif" font-size="11" fill="#374151">2.5</text><line x1="76" y1="54.0" x2="698" y2="54.0" stroke="#e5e7eb"/><text x="66" y="58.0" text-anchor="end" font-family="sans-serif" font-size="11" fill="#374151">2.9</text><line x1="76" y1="378" x2="698" y2="378" stroke="#111827" stroke-width="1.3"/><line x1="76" y1="54" x2="76" y2="378" stroke="#111827" stroke-width="1.3"/><text x="387.0" y="424" text-anchor="middle" font-family="sans-serif" font-size="13">t</text><text x="18" y="216.0" text-anchor="middle" transform="rotate(-90 18 216.0)" font-family="sans-serif" font-size="13">u</text><polyline points="93.6,355.7 99.5,354.0 105.5,352.3 111.4,350.7 117.3,349.0 123.2,347.2 129.2,345.5 135.1,343.7 141.0,342.0 146.9,340.2 152.9,338.4 158.8,336.6 164.7,334.7 170.7,332.8 176.6,331.0 182.5,329.1 188.4,327.1 194.4,325.2 200.3,323.2 206.2,321.3 212.1,319.3 218.1,317.2 224.0,315.2 229.9,313.1 235.9,311.1 241.8,309.0 247.7,306.8 253.6,304.7 259.6,302.5 265.5,300.3 271.4,298.1 277.3,295.9 283.3,293.6 289.2,291.3 295.1,289.0 301.1,286.7 307.0,284.4 312.9,282.0 318.8,279.6 324.8,277.2 330.7,274.7 336.6,272.3 342.5,269.8 348.5,267.2 354.4,264.7 360.3,262.1 366.3,259.5 372.2,256.9 378.1,254.2 384.0,251.6 390.0,248.8 395.9,246.1 401.8,243.4 407.7,240.6 413.7,237.7 419.6,234.9 425.5,232.0 431.5,229.1 437.4,226.2 443.3,223.2 449.2,220.2 455.2,217.2 461.1,214.1 467.0,211.0 472.9,207.9 478.9,204.8 484.8,201.6 490.7,198.4 496.7,195.1 502.6,191.9 508.5,188.5 514.4,185.2 520.4,181.8 526.3,178.4 532.2,175.0 538.1,171.5 544.1,167.9 550.0,164.4 555.9,160.8 561.9,157.2 567.8,153.5 573.7,149.8 579.6,146.1 585.6,142.3 591.5,138.5 597.4,134.6 603.3,130.7 609.3,126.8 615.2,122.8 621.1,118.8 627.1,114.7 633.0,110.6 638.9,106.5 644.8,102.3 650.8,98.1 656.7,93.8 662.6,89.5 668.5,85.2 674.5,80.8 680.4,76.3" fill="none" stroke="#2563eb" stroke-width="2.1" stroke-linejoin="round" stroke-linecap="round"/><polyline points="93.6,355.7 240.3,315.0 387.0,264.2 533.7,200.7 680.4,121.4" fill="none" stroke="#dc2626" stroke-width="2.1" stroke-linejoin="round" stroke-linecap="round"/><circle cx="93.6" cy="355.7" r="3.2" fill="white" stroke="#dc2626" stroke-width="1.8"/><circle cx="240.3" cy="315.0" r="3.2" fill="white" stroke="#dc2626" stroke-width="1.8"/><circle cx="387.0" cy="264.2" r="3.2" fill="white" stroke="#dc2626" stroke-width="1.8"/><circle cx="533.7" cy="200.7" r="3.2" fill="white" stroke="#dc2626" stroke-width="1.8"/><circle cx="680.4" cy="121.4" r="3.2" fill="white" stroke="#dc2626" stroke-width="1.8"/><line x1="88" y1="68" x2="112" y2="68" stroke="#2563eb" stroke-width="2.5"/><text x="119" y="72" font-family="sans-serif" font-size="11" fill="#111827">exact exp(t)</text><line x1="88" y1="87" x2="112" y2="87" stroke="#dc2626" stroke-width="2.5"/><text x="119" y="91" font-family="sans-serif" font-size="11" fill="#111827">Euler h=0.25</text></svg>