<svg xmlns="http://www.w3.org/2000/svg" viewBox="0 0 800 400"><rect width="800" height="400" fill="white"/><text x="400" y="28" text-anchor="middle" font-family="sans-serif" font-size="22">Conditioning changes gradient-descent paths</text><g transform="translate(0 0)"><ellipse cx="240" cy="220" rx="45" ry="45.0" fill="none" stroke="#999" stroke-width="1.5"/><ellipse cx="240" cy="220" rx="80" ry="80.0" fill="none" stroke="#999" stroke-width="1.5"/><ellipse cx="240" cy="220" rx="115" ry="115.0" fill="none" stroke="#999" stroke-width="1.5"/><ellipse cx="240" cy="220" rx="150" ry="150.0" fill="none" stroke="#999" stroke-width="1.5"/><ellipse cx="580" cy="220" rx="45" ry="15.0" fill="none" stroke="#999" stroke-width="1.5"/><ellipse cx="580" cy="220" rx="80" ry="26.7" fill="none" stroke="#999" stroke-width="1.5"/><ellipse cx="580" cy="220" rx="115" ry="38.3" fill="none" stroke="#999" stroke-width="1.5"/><ellipse cx="580" cy="220" rx="150" ry="50.0" fill="none" stroke="#999" stroke-width="1.5"/><polyline points="125.0,100.0 190.0,300.0 220.0,150.0 235.0,255.0 240.0,190.0 242.0,230.0 240.0,220.0" fill="none" stroke="#1f77b4" stroke-width="3"/><polyline points="455.0,105.0 650.0,300.0 500.0,150.0 625.0,270.0 525.0,175.0 605.0,250.0 545.0,190.0 590.0,238.0 560.0,205.0 580.0,220.0" fill="none" stroke="#ff7f0e" stroke-width="3"/><text x="240" y="55" text-anchor="middle" font-family="sans-serif" font-size="17">well conditioned</text><text x="580" y="55" text-anchor="middle" font-family="sans-serif" font-size="17">poorly conditioned</text></g></svg>