<svg xmlns="http://www.w3.org/2000/svg" viewBox="0 0 800 450" role="img" aria-label="Simulated annealing trace"><rect width="800" height="450" fill="white"/><g stroke="#333" fill="none" stroke-width="2"><path d="M70 390H760"/><path d="M70 390V45"/></g><g font-family="sans-serif" fill="#222"><text x="400" y="28" text-anchor="middle" font-size="22">Simulated annealing trace</text><text x="415" y="435" text-anchor="middle" font-size="16">iteration</text><text x="20" y="220" transform="rotate(-90 20 220)" text-anchor="middle" font-size="16">scaled value</text><text x="560" y="65" font-size="14" fill="#1f77b4">current objective</text><text x="560" y="87" font-size="14" fill="#ff7f0e">best so far</text><text x="560" y="109" font-size="14" fill="#2ca02c">temperature</text></g><polyline points="70,110 105,175 140,135 175,210 210,185 245,255 280,225 315,300 350,270 385,320 420,305 455,340 490,325 525,355 560,345 595,365 630,358 665,372 700,368 735,378" fill="none" stroke="#1f77b4" stroke-width="3"/><polyline points="70,110 105,175 140,175 175,210 210,210 245,255 280,255 315,300 350,300 385,320 420,320 455,340 490,340 525,355 560,355 595,365 630,365 665,372 700,372 735,378" fill="none" stroke="#ff7f0e" stroke-width="3"/><path d="M70 80 C210 135 360 220 735 380" fill="none" stroke="#2ca02c" stroke-width="3" stroke-dasharray="5 5"/><g stroke="#999" opacity=".5"><path d="M140 45V390"/><path d="M280 45V390"/><path d="M420 45V390"/></g><text x="90" y="410" font-family="sans-serif" font-size="13">early uphill moves help escape local traps; later moves become greedier</text></svg>