<svg xmlns="http://www.w3.org/2000/svg" width="800" height="450" viewBox="0 0 800 450"><rect width="100%" height="100%" fill="white"/><text x="400.0" y="28" text-anchor="middle" font-family="sans-serif" font-size="18">Natural cubic spline through irregular knots</text><line x1="82.00" y1="54" x2="82.00" y2="382" stroke="#e5e7eb"/><line x1="82" y1="382.00" x2="772" y2="382.00" stroke="#e5e7eb"/><text x="82.00" y="404" text-anchor="middle" font-family="sans-serif" font-size="11">-0.3</text><text x="72" y="386.00" text-anchor="end" font-family="sans-serif" font-size="11">-0.193</text><line x1="254.50" y1="54" x2="254.50" y2="382" stroke="#e5e7eb"/><line x1="82" y1="300.00" x2="772" y2="300.00" stroke="#e5e7eb"/><text x="254.50" y="404" text-anchor="middle" font-family="sans-serif" font-size="11">1.1</text><text x="72" y="304.00" text-anchor="end" font-family="sans-serif" font-size="11">0.386</text><line x1="427.00" y1="54" x2="427.00" y2="382" stroke="#e5e7eb"/><line x1="82" y1="218.00" x2="772" y2="218.00" stroke="#e5e7eb"/><text x="427.00" y="404" text-anchor="middle" font-family="sans-serif" font-size="11">2.5</text><text x="72" y="222.00" text-anchor="end" font-family="sans-serif" font-size="11">0.966</text><line x1="599.50" y1="54" x2="599.50" y2="382" stroke="#e5e7eb"/><line x1="82" y1="136.00" x2="772" y2="136.00" stroke="#e5e7eb"/><text x="599.50" y="404" text-anchor="middle" font-family="sans-serif" font-size="11">3.9</text><text x="72" y="140.00" text-anchor="end" font-family="sans-serif" font-size="11">1.55</text><line x1="772.00" y1="54" x2="772.00" y2="382" stroke="#e5e7eb"/><line x1="82" y1="54.00" x2="772" y2="54.00" stroke="#e5e7eb"/><text x="772.00" y="404" text-anchor="middle" font-family="sans-serif" font-size="11">5.3</text><text x="72" y="58.00" text-anchor="end" font-family="sans-serif" font-size="11">2.12</text><line x1="82" y1="54" x2="82" y2="382" stroke="#111827" stroke-width="1.2"/><line x1="82" y1="382" x2="772" y2="382" stroke="#111827" stroke-width="1.2"/><text x="427.0" y="432" text-anchor="middle" font-family="sans-serif" font-size="13">x</text><text x="20" y="218.0" transform="rotate(-90 20 218.0)" text-anchor="middle" font-family="sans-serif" font-size="13">S(x)</text><polyline points="118.96,354.67 145.75,297.40 172.54,246.19 199.32,207.09 226.11,186.16 252.89,189.25 279.68,214.64 306.46,250.75 333.25,285.34 360.04,306.17 386.82,301.01 413.61,261.31 440.39,199.91 467.18,137.24 493.96,93.70 520.75,81.38 547.54,93.76 574.32,121.84 601.11,156.59 627.89,188.99 654.68,210.02 681.46,210.75 708.25,189.45 735.04,156.53" fill="none" stroke="#2563eb" stroke-width="2.2"/><circle cx="118.96" cy="354.67" r="4" fill="#dc2626" stroke="white" stroke-width="1"/><circle cx="242.18" cy="184.84" r="4" fill="#dc2626" stroke="white" stroke-width="1"/><circle cx="390.04" cy="298.06" r="4" fill="#dc2626" stroke="white" stroke-width="1"/><circle cx="488.61" cy="99.92" r="4" fill="#dc2626" stroke="white" stroke-width="1"/><circle cx="673.43" cy="213.14" r="4" fill="#dc2626" stroke="white" stroke-width="1"/><circle cx="735.04" cy="156.53" r="4" fill="#dc2626" stroke="white" stroke-width="1"/><rect x="554" y="46" width="210" height="58" rx="4" fill="white" fill-opacity=".88" stroke="#d1d5db"/><line x1="562" y1="62" x2="588" y2="62" stroke="#2563eb" stroke-width="2.2"/><text x="596" y="66" font-family="sans-serif" font-size="11">natural cubic spline</text><line x1="562" y1="86" x2="588" y2="86" stroke="#dc2626" stroke-width="2.2"/><text x="596" y="90" font-family="sans-serif" font-size="11">knots</text></svg>