<svg xmlns="http://www.w3.org/2000/svg" width="800" height="450" viewBox="0 0 800 450">
<rect width="100%" height="100%" fill="white"/>
<text x="400.0" y="28" text-anchor="middle" font-family="sans-serif" font-size="18">Linear interpolation is a weighted average</text>
<line x1="82.00" y1="54" x2="82.00" y2="382" stroke="#e5e7eb"/>
<line x1="82" y1="382.00" x2="772" y2="382.00" stroke="#e5e7eb"/>
<text x="82.00" y="404" text-anchor="middle" font-family="sans-serif" font-size="11">0.82</text>
<text x="72" y="386.00" text-anchor="end" font-family="sans-serif" font-size="11">1.7</text>
<line x1="254.50" y1="54" x2="254.50" y2="382" stroke="#e5e7eb"/>
<line x1="82" y1="300.00" x2="772" y2="300.00" stroke="#e5e7eb"/>
<text x="254.50" y="404" text-anchor="middle" font-family="sans-serif" font-size="11">1.66</text>
<text x="72" y="304.00" text-anchor="end" font-family="sans-serif" font-size="11">2.6</text>
<line x1="427.00" y1="54" x2="427.00" y2="382" stroke="#e5e7eb"/>
<line x1="82" y1="218.00" x2="772" y2="218.00" stroke="#e5e7eb"/>
<text x="427.00" y="404" text-anchor="middle" font-family="sans-serif" font-size="11">2.5</text>
<text x="72" y="222.00" text-anchor="end" font-family="sans-serif" font-size="11">3.5</text>
<line x1="599.50" y1="54" x2="599.50" y2="382" stroke="#e5e7eb"/>
<line x1="82" y1="136.00" x2="772" y2="136.00" stroke="#e5e7eb"/>
<text x="599.50" y="404" text-anchor="middle" font-family="sans-serif" font-size="11">3.34</text>
<text x="72" y="140.00" text-anchor="end" font-family="sans-serif" font-size="11">4.4</text>
<line x1="772.00" y1="54" x2="772.00" y2="382" stroke="#e5e7eb"/>
<line x1="82" y1="54.00" x2="772" y2="54.00" stroke="#e5e7eb"/>
<text x="772.00" y="404" text-anchor="middle" font-family="sans-serif" font-size="11">4.18</text>
<text x="72" y="58.00" text-anchor="end" font-family="sans-serif" font-size="11">5.3</text>
<line x1="82" y1="54" x2="82" y2="382" stroke="#111827" stroke-width="1.2"/>
<line x1="82" y1="382" x2="772" y2="382" stroke="#111827" stroke-width="1.2"/>
<text x="427.0" y="432" text-anchor="middle" font-family="sans-serif" font-size="13">x</text>
<text x="20" y="218.0" transform="rotate(-90 20 218.0)" text-anchor="middle" font-family="sans-serif" font-size="13">y</text>
<polyline points="118.96,354.67 735.04,81.33" fill="none" stroke="#2563eb" stroke-width="2.2"/>
<circle cx="118.96" cy="354.67" r="4" fill="#dc2626" stroke="white" stroke-width="1"/>
<circle cx="735.04" cy="81.33" r="4" fill="#dc2626" stroke="white" stroke-width="1"/>
<circle cx="365.39" cy="245.33" r="4" fill="#059669" stroke="white" stroke-width="1"/>
<rect x="554" y="46" width="210" height="82" rx="4" fill="white" fill-opacity=".88" stroke="#d1d5db"/>
<line x1="562" y1="62" x2="588" y2="62" stroke="#2563eb" stroke-width="2.2"/>
<text x="596" y="66" font-family="sans-serif" font-size="11">linear interpolant</text>
<line x1="562" y1="86" x2="588" y2="86" stroke="#dc2626" stroke-width="2.2"/>
<text x="596" y="90" font-family="sans-serif" font-size="11">endpoints</text>
<line x1="562" y1="110" x2="588" y2="110" stroke="#059669" stroke-width="2.2"/>
<text x="596" y="114" font-family="sans-serif" font-size="11">query t=0.40</text>
</svg>